<svg xmlns="http://www.w3.org/2000/svg" viewBox="0 0 64 64" fill="none">
  <defs>
    <linearGradient id="g" x1="0" y1="0" x2="64" y2="64" gradientUnits="userSpaceOnUse">
      <stop offset="0" stop-color="#7F55B1"/>
      <stop offset="0.6" stop-color="#9B7EBD"/>
      <stop offset="1" stop-color="#F49BAB"/>
    </linearGradient>
  </defs>
  <!-- Minimal chess knight mark -->
  <path d="M44 50H20c0-6.5 5.3-8.7 9.5-10.4l.3-.1c2.8-1.1 4.2-2.2 4.2-3.9 0-1.6-1.1-3-2.8-3.5l-6.4-2-5.4 5.4-3-2.6 5.1-6.2c.7-.9 1.6-1.6 2.6-2.1l6.9-3.2c.7-.3 1.5-.5 2.3-.5 3.9 0 7 3.1 7 7 0 1.3-.3 2.5-.9 3.5 2.4 1.7 3.6 4 3.6 6.8 0 6.5-6.1 9.4-12 10.8V50Z" fill="url(#g)"/>
  <rect x="16" y="50" width="32" height="4" rx="2" fill="#EADFF3"/>
</svg>

